<svg width="100" height="100" viewBox="0 0 100 100" fill="none" xmlns="http://www.w3.org/2000/svg">
<circle cx="50" cy="50" r="50" fill="#27B2EC"/>
<path d="M67.93 52.6356C66.6721 52.1963 65.3343 51.9567 63.9367 51.9567C60.7594 51.9567 57.7122 53.2189 55.4655 55.4655C53.2188 57.7122 51.9567 60.7594 51.9567 63.9367C51.9567 64.6156 52.0166 65.2745 52.1164 65.9334H31.99C30.9309 65.9334 29.9152 65.5126 29.1663 64.7637C28.4174 64.0148 27.9967 62.9991 27.9967 61.94V37.98C27.9967 35.7637 29.7737 33.9867 31.99 33.9867H63.9367C64.9958 33.9867 66.0115 34.4074 66.7604 35.1563C67.5093 35.9052 67.93 36.9209 67.93 37.98V52.6356ZM72.9217 59.9434L62.9383 69.9267L55.95 62.9384L58.945 59.9434L62.9383 63.9367L69.9267 56.9484L72.9217 59.9434ZM31.99 37.98V41.9734L47.9633 51.9567L63.9367 41.9734V37.98L47.9633 47.9634L31.99 37.98Z" fill="white"/>
</svg>
