<svg width="100" height="100" viewBox="0 0 100 100" fill="none" xmlns="http://www.w3.org/2000/svg">
<circle cx="50" cy="50" r="50" fill="#27B2EC"/>
<path d="M50.3472 29.6875C44.8428 29.6875 40.3646 34.1657 40.3646 39.6701V45.6597H38.3681C37.309 45.6597 36.2934 46.0804 35.5445 46.8293C34.7957 47.5781 34.375 48.5938 34.375 49.6528V65.625C34.375 66.684 34.7957 67.6997 35.5445 68.4485C36.2934 69.1974 37.309 69.6181 38.3681 69.6181H62.3264C63.3854 69.6181 64.4011 69.1974 65.1499 68.4485C65.8987 67.6997 66.3194 66.684 66.3194 65.625V49.6528C66.3194 48.5938 65.8987 47.5781 65.1499 46.8293C64.4011 46.0804 63.3854 45.6597 62.3264 45.6597H60.3299V39.6701C60.3299 34.1657 55.8517 29.6875 50.3472 29.6875ZM44.3576 39.6701C44.3576 36.3679 47.045 33.6806 50.3472 33.6806C53.6495 33.6806 56.3368 36.3679 56.3368 39.6701V45.6597H44.3576V39.6701ZM52.3438 61.0789V65.625H48.3507V61.0789C47.6527 60.6792 47.0922 60.0773 46.7431 59.3526C46.3941 58.6279 46.2729 57.8145 46.3955 57.0195C46.5181 56.2245 46.8787 55.4854 47.4298 54.8995C47.981 54.3136 48.6967 53.9086 49.4827 53.7377C50.0665 53.6086 50.6719 53.6122 51.2541 53.7482C51.8364 53.8843 52.3807 54.1493 52.8468 54.5237C53.313 54.8981 53.6892 55.3723 53.9477 55.9115C54.2062 56.4507 54.3403 57.041 54.3403 57.6389C54.3391 58.3372 54.154 59.0228 53.8035 59.6267C53.453 60.2306 52.9495 60.7315 52.3438 61.0789Z" fill="white"/>
</svg>
