<svg width="249" height="181" viewBox="0 0 249 181" fill="none" xmlns="http://www.w3.org/2000/svg">
<g opacity="0.5" clip-path="url(#clip0)">
<path d="M236.407 180.878H196.033" stroke="#3F3D56" stroke-miterlimit="10"/>
<path d="M17.3651 31.1738H187.18C189.786 31.1738 191.898 33.293 191.898 35.9072V148.205C191.898 150.819 189.786 152.938 187.18 152.938H17.3651C14.7596 152.938 12.6473 150.819 12.6473 148.205V35.9072C12.6473 33.293 14.7596 31.1738 17.3651 31.1738Z" fill="#F2F2F2"/>
<path d="M22.8375 23.4873H192.653C195.258 23.4873 197.371 25.6065 197.371 28.2207V140.518C197.371 143.132 195.258 145.252 192.653 145.252H22.8375C20.2319 145.252 18.1197 143.132 18.1197 140.518V28.2207C18.1197 25.6065 20.2319 23.4873 22.8375 23.4873Z" stroke="#3F3D56" stroke-miterlimit="10"/>
<path d="M197.371 35.1611H18.1197" stroke="#3F3D56" stroke-miterlimit="10"/>
<path opacity="0.3" d="M43.0719 62.5298H88.5085C89.4612 62.5298 90.2335 63.3046 90.2335 64.2605V68.3636C90.2335 69.3194 89.4612 70.0943 88.5085 70.0943H43.0719C42.1192 70.0943 41.3469 69.3194 41.3469 68.3636V64.2605C41.3469 63.3046 42.1192 62.5298 43.0719 62.5298Z" fill="#F9A826"/>
<path opacity="0.3" d="M33.7081 83.5156H97.8724C98.8251 83.5156 99.5974 84.2905 99.5974 85.2463V87.8853C99.5974 88.8412 98.8251 89.616 97.8724 89.616H33.7081C32.7554 89.616 31.983 88.8412 31.983 87.8853V85.2463C31.983 84.2905 32.7554 83.5156 33.7081 83.5156Z" fill="#F9A826"/>
<path opacity="0.3" d="M33.7081 100.108H97.8724C98.8251 100.108 99.5974 100.883 99.5974 101.839V104.478C99.5974 105.434 98.8251 106.209 97.8724 106.209H33.7081C32.7554 106.209 31.983 105.434 31.983 104.478V101.839C31.983 100.883 32.7554 100.108 33.7081 100.108Z" fill="#F9A826"/>
<path opacity="0.3" d="M33.7081 116.702H97.8724C98.8251 116.702 99.5974 117.477 99.5974 118.432V121.071C99.5974 122.027 98.8251 122.802 97.8724 122.802H33.7081C32.7554 122.802 31.983 122.027 31.983 121.071V118.432C31.983 117.477 32.7554 116.702 33.7081 116.702Z" fill="#F9A826"/>
<path d="M40.6398 60.0898H86.0763C87.029 60.0898 87.8014 60.8647 87.8014 61.8205V65.9237C87.8014 66.8795 87.029 67.6543 86.0763 67.6543H40.6398C39.6871 67.6543 38.9147 66.8795 38.9147 65.9237V61.8205C38.9147 60.8647 39.6871 60.0898 40.6398 60.0898Z" stroke="#3F3D56" stroke-miterlimit="10"/>
<path d="M31.2759 81.0752H95.4402C96.3929 81.0752 97.1652 81.8501 97.1652 82.8059V85.4449C97.1652 86.4008 96.3929 87.1756 95.4402 87.1756H31.2759C30.3232 87.1756 29.5509 86.4008 29.5509 85.4449V82.8059C29.5509 81.8501 30.3232 81.0752 31.2759 81.0752Z" stroke="#3F3D56" stroke-miterlimit="10"/>
<path d="M31.2759 97.6685H95.4402C96.3929 97.6685 97.1652 98.4433 97.1652 99.3991V102.038C97.1652 102.994 96.3929 103.769 95.4402 103.769H31.2759C30.3232 103.769 29.5509 102.994 29.5509 102.038V99.3991C29.5509 98.4433 30.3232 97.6685 31.2759 97.6685Z" stroke="#3F3D56" stroke-miterlimit="10"/>
<path d="M31.2759 114.262H95.4402C96.3929 114.262 97.1652 115.037 97.1652 115.992V118.631C97.1652 119.587 96.3929 120.362 95.4402 120.362H31.2759C30.3232 120.362 29.5509 119.587 29.5509 118.631V115.992C29.5509 115.037 30.3232 114.262 31.2759 114.262Z" stroke="#3F3D56" stroke-miterlimit="10"/>
<path opacity="0.3" d="M183.75 34.468C181.736 34.468 180.102 32.8292 180.102 30.8077C180.102 28.7862 181.736 27.1475 183.75 27.1475C185.765 27.1475 187.399 28.7862 187.399 30.8077C187.399 32.8292 185.765 34.468 183.75 34.468Z" fill="#F9A826"/>
<path opacity="0.3" d="M173.535 34.468C171.52 34.468 169.887 32.8292 169.887 30.8077C169.887 28.7862 171.52 27.1475 173.535 27.1475C175.55 27.1475 177.184 28.7862 177.184 30.8077C177.184 32.8292 175.55 34.468 173.535 34.468Z" fill="#F9A826"/>
<path opacity="0.3" d="M163.32 34.468C161.305 34.468 159.672 32.8292 159.672 30.8077C159.672 28.7862 161.305 27.1475 163.32 27.1475C165.335 27.1475 166.969 28.7862 166.969 30.8077C166.969 32.8292 165.335 34.468 163.32 34.468Z" fill="#F9A826"/>
<path d="M182.291 33.0041C180.276 33.0041 178.643 31.3653 178.643 29.3438C178.643 27.3223 180.276 25.6836 182.291 25.6836C184.306 25.6836 185.939 27.3223 185.939 29.3438C185.939 31.3653 184.306 33.0041 182.291 33.0041Z" stroke="#3F3D56" stroke-miterlimit="10"/>
<path d="M172.076 33.0041C170.061 33.0041 168.428 31.3653 168.428 29.3438C168.428 27.3223 170.061 25.6836 172.076 25.6836C174.091 25.6836 175.724 27.3223 175.724 29.3438C175.724 31.3653 174.091 33.0041 172.076 33.0041Z" stroke="#3F3D56" stroke-miterlimit="10"/>
<path d="M161.861 33.0041C159.846 33.0041 158.213 31.3653 158.213 29.3438C158.213 27.3223 159.846 25.6836 161.861 25.6836C163.876 25.6836 165.509 27.3223 165.509 29.3438C165.509 31.3653 163.876 33.0041 161.861 33.0041Z" stroke="#3F3D56" stroke-miterlimit="10"/>
<path d="M140.737 140.127C141.347 137.304 141.509 133.449 141.304 130.767C141.304 130.767 144.392 117.154 146.822 115.884L146.823 115.885C146.86 115.933 148.04 117.484 148.189 122.284C148.341 127.16 150.062 130.36 150.062 130.36C150.062 130.36 149.505 136.438 149.824 140.127L140.737 140.127Z" fill="#F9A826"/>
<path d="M118.27 53.5015H174.321C175.08 53.5015 175.832 53.6515 176.533 53.943C177.235 54.2345 177.872 54.6618 178.409 55.2004C178.946 55.7391 179.372 56.3786 179.662 57.0823C179.953 57.7861 180.102 58.5404 180.102 59.3021V134.327C180.102 135.088 179.953 135.843 179.662 136.547C179.372 137.25 178.946 137.89 178.409 138.428C177.872 138.967 177.235 139.394 176.533 139.686C175.832 139.977 175.08 140.127 174.321 140.127H154.655C155.312 137.395 156.128 133.126 155.302 130.159L155.302 130.157L155.301 130.158C155.263 130.02 155.222 129.883 155.176 129.75C154.608 127.824 154.419 125.806 154.618 123.808C154.253 122.1 154.253 120.334 154.618 118.627C155.226 115.783 155.651 112.989 155.651 112.989C155.651 112.989 155.986 109.23 155.694 106.926C155.687 106.876 155.68 106.828 155.673 106.779C155.776 106.755 155.834 106.741 155.834 106.741C155.834 106.741 154.973 102.83 154.669 100.341C154.598 99.7539 154.503 99.009 154.401 98.2149C154.681 98.1681 154.957 98.0979 155.226 98.0049C157.96 97.0399 158.821 88.3034 158.821 88.3034V85.5352C158.821 85.5352 159.732 81.294 156.543 79.4146C153.471 77.6049 152.245 77.1096 152.158 77.0754C152.135 77.0586 152.112 77.0434 152.088 77.0248C151.741 76.7515 151.466 76.3967 151.288 75.9917C151.284 75.922 151.283 75.8527 151.285 75.7838C151.337 74.7915 152.025 73.889 152.679 73.1015C153.236 72.4299 153.793 71.7582 154.351 71.0866C154.541 70.8865 154.688 70.6483 154.781 70.3875C154.816 70.2436 154.832 70.0955 154.827 69.9473C154.827 69.8925 154.827 69.8378 154.826 69.7831C154.816 69.2823 154.803 68.7816 154.785 68.2811C154.769 67.8437 154.659 67.2919 154.233 67.2021C154.011 67.1553 153.717 67.2368 153.599 67.0421C153.56 66.9618 153.55 66.8702 153.571 66.7833C153.572 66.7898 153.573 66.7966 153.575 66.8029C153.576 66.7948 153.577 66.7866 153.579 66.7785C153.667 66.4279 153.72 66.0694 153.737 65.7082C153.742 65.5452 153.719 65.3826 153.669 65.2275C153.421 64.5015 152.57 64.2036 151.817 64.0667C151.065 63.9297 150.22 63.8119 149.748 63.2084C149.622 63.0081 149.484 62.8147 149.337 62.6292C149.121 62.4316 148.854 62.2969 148.567 62.2396C147.633 62.0024 146.647 62.0902 145.769 62.4887C145.405 62.6554 145.039 62.8798 144.64 62.8544C144.225 62.828 143.871 62.5352 143.462 62.4639C142.8 62.3489 142.168 62.846 141.842 63.4347C141.635 63.8092 141.531 64.2323 141.542 64.6604C141.534 65.0866 141.688 65.4999 141.971 65.8173C142.256 66.1203 142.681 66.3283 142.799 66.7274C142.847 66.8898 142.836 67.0648 142.878 67.2288C142.884 67.2492 142.892 67.2684 142.899 67.2882C142.891 67.2984 142.883 67.308 142.875 67.3182C142.377 67.9764 142.044 68.7445 141.902 69.5585C141.76 70.3724 141.815 71.2085 142.06 71.997C142.306 72.7856 142.737 73.5037 143.316 74.0914C143.894 74.6791 144.605 75.1194 145.388 75.3755C145.39 75.4269 145.392 75.4783 145.392 75.5299C145.406 75.8502 145.352 76.1698 145.233 76.4672C145.114 76.7646 144.933 77.0329 144.701 77.2539L140.19 79.1098C140.19 79.1098 137.474 78.7796 136.494 82.8456C136.337 83.5215 136.281 84.2169 136.327 84.9094C136.362 85.5225 136.279 86.6018 135.583 87.9986C134.469 90.2336 134.722 95.3637 137.001 95.8716C139.158 96.3527 139.998 96.1506 140.081 96.1279L140.086 96.2177C140.05 97.1803 139.708 105.483 138.469 106.487C138.126 106.765 138.191 106.953 138.473 107.079L138.472 107.08C138.472 107.08 138.47 107.133 138.464 107.229C138.427 107.837 138.236 110.149 137.406 111.465C136.444 112.989 136.545 121.776 136.545 121.776L135.887 126.957C135.887 126.957 136.292 130.157 135.887 130.716C135.657 131.032 135.379 135.939 135.181 140.127H118.27C116.736 140.127 115.266 139.516 114.181 138.428C113.097 137.341 112.488 135.865 112.488 134.327V59.3021C112.488 58.5404 112.637 57.7861 112.928 57.0823C113.219 56.3786 113.644 55.7391 114.181 55.2004C114.718 54.6618 115.356 54.2345 116.057 53.943C116.758 53.6515 117.51 53.5015 118.27 53.5015Z" fill="#F9A826"/>
<path d="M124.107 46.9131H180.158C183.351 46.9131 185.939 49.5101 185.939 52.7138V127.738C185.939 130.942 183.351 133.539 180.158 133.539H124.107C120.914 133.539 118.325 130.942 118.325 127.738V52.7138C118.325 49.5101 120.914 46.9131 124.107 46.9131Z" stroke="#3F3D56" stroke-miterlimit="10"/>
<path d="M211.885 78.4833C211.885 78.4833 214.153 77.8106 214.639 78.5426C215.126 79.2747 213.976 84.5815 213.976 84.5815L208.979 84.8862L210.723 80.4679L211.885 78.4833Z" fill="#2F2E41"/>
<path d="M229.367 122.062C229.367 122.062 224.82 132.077 228.322 131.762C231.824 131.448 233.182 122.062 233.182 122.062H229.367Z" fill="#A0616A"/>
<path d="M199.63 121.019C199.63 121.019 201.625 131.84 198.303 130.684C194.982 129.528 195.928 120.092 195.928 120.092L199.63 121.019Z" fill="#A0616A"/>
<path d="M212.852 75.9724C212.852 75.9724 212.904 81.0061 210.971 81.2683C209.037 81.5305 212.068 84.2046 212.068 84.2046L215.518 84.8863L220.483 84.5193L222.678 81.6878C222.678 81.6878 218.81 79.8526 220.483 74.1372L212.852 75.9724Z" fill="#A0616A"/>
<path opacity="0.1" d="M212.852 75.9724C212.852 75.9724 212.904 81.0061 210.971 81.2683C209.037 81.5305 212.068 84.2046 212.068 84.2046L215.518 84.8863L220.483 84.5193L222.678 81.6878C222.678 81.6878 218.81 79.8526 220.483 74.1372L212.852 75.9724Z" fill="black"/>
<path d="M203.968 118.549C203.968 118.549 201.511 123.845 203.445 140.467C203.445 140.467 202.87 146.339 203.34 147.44C203.811 148.541 207.678 163.485 207.678 163.485C207.678 163.485 212.643 164.586 213.323 161.283C213.323 161.283 212.643 156.564 212.695 155.83C212.748 155.096 211.598 147.073 211.598 147.073L213.95 131.553L215.727 145.553C215.727 145.553 215.727 149.59 216.302 150.482C216.877 151.373 216.302 169.306 216.302 169.306C216.302 169.306 214.681 172.032 217.138 172.085C219.594 172.137 221.789 172.032 221.998 170.302C222.207 168.571 222.312 166.841 222.834 165.792C223.357 164.744 224.037 152.736 223.88 148.541C223.723 144.347 227.329 122.796 226.179 120.541C225.03 118.287 203.968 118.549 203.968 118.549Z" fill="#2F2E41"/>
<path d="M215.518 77.8597C212.054 77.8597 209.246 75.0426 209.246 71.5675C209.246 68.0925 212.054 65.2754 215.518 65.2754C218.981 65.2754 221.789 68.0925 221.789 71.5675C221.789 75.0426 218.981 77.8597 215.518 77.8597Z" fill="#A0616A"/>
<path d="M221.789 81.7925C221.789 81.7925 217.974 84.624 212.434 82.3693C212.434 82.3693 210.605 81.4779 210.762 80.1146C210.918 78.7513 206.947 91.0734 206.947 91.0734L202.922 112.519L203.131 121.276C203.131 121.276 204.908 120.384 210.448 122.377C215.988 124.369 225.029 120.122 225.029 120.122L224.716 97.6278L224.402 84.5191L223.566 81.6352C223.566 81.6352 223.148 80.8487 221.789 81.7925Z" fill="#F2F2F2"/>
<path d="M212.678 78.2727C212.678 78.2727 211.755 78.1222 210.866 79.538C209.978 80.9537 207.887 81.8451 207.887 81.8451C207.887 81.8451 202.818 82.1597 202.086 84.8863C201.354 87.6129 199.525 91.3357 198.637 98.2047C197.748 105.074 195.971 116.032 195.71 116.924C195.449 117.815 196.076 120.542 195.344 121.381C194.613 122.22 200.518 122.22 200.518 122.22C200.518 122.22 201.041 117.92 201.407 117.92C201.773 117.92 201.668 120.804 201.302 122.901C200.936 124.999 203.968 122.901 203.968 122.901C203.968 122.901 206.319 113.306 208.567 104.654C210.814 96.0024 212.121 91.2309 211.702 89.2908C211.284 87.3507 210.135 81.7927 210.971 81.2683C211.807 80.744 212.678 78.2727 212.678 78.2727Z" fill="#2F2E41"/>
<path d="M220.215 78.2681C220.215 78.2681 221.58 79.0136 225.029 81.478C228.479 83.9425 230.831 85.8301 230.831 85.8301C230.831 85.8301 232.189 86.8788 233.026 93.1185C233.862 99.3582 235.743 115.508 235.012 117.553C234.28 119.598 234.019 120.804 234.28 122.01C234.541 123.216 228.792 123.164 228.688 122.901C228.583 122.639 228.845 117.868 228.583 117.763C228.322 117.658 226.911 120.594 226.65 123.059C226.388 125.523 223.357 127.463 222.678 127.463C221.998 127.463 218.497 113.253 218.444 103.553C218.392 93.8526 219.594 85.6728 220.483 84.5192C221.371 83.3657 220.215 78.2681 220.215 78.2681Z" fill="#2F2E41"/>
<path d="M211.023 163.957C211.023 163.957 210.605 162.804 209.142 163.171C207.678 163.538 206.685 162.227 206.685 162.227C206.685 162.227 205.901 162.122 206.424 163.118C206.947 164.114 207.365 164.796 207.365 164.796C207.365 164.796 204.229 171.98 206.267 173.71C208.305 175.44 210.657 174.392 210.657 174.392C210.657 174.392 212.957 172.766 212.852 168.466C212.852 168.466 212.957 167.103 214.211 164.901C215.465 162.699 216.406 159.343 214.89 158.714C213.375 158.084 212.985 158.061 212.985 158.061C212.985 158.061 213.694 161.316 211.862 162.453L211.023 163.957Z" fill="#3F3D56"/>
<path d="M220.744 172.085C220.744 172.085 221.998 169.725 219.908 169.463C217.817 169.201 215.57 169.043 215.674 170.145C215.779 171.246 216.04 172.924 216.04 172.924L215.674 174.13C215.674 174.13 215.57 177.118 215.204 177.485C214.838 177.852 212.852 180.999 217.086 180.999C221.319 180.999 222.573 180.527 222.207 179.53C221.841 178.534 221.737 173.605 221.737 173.605L220.744 172.085Z" fill="#3F3D56"/>
<path d="M217.504 66.5339C217.504 66.5339 214.577 67.3204 213.061 67.635C211.546 67.9496 211.702 67.0582 211.702 67.0582C211.702 67.0582 209.716 67.3204 209.821 67.1107C209.925 66.9009 208.985 65.7998 210.082 64.5414C211.18 63.2829 210.866 62.3391 210.866 62.3391H211.807L212.068 61.9721H213.532C213.532 61.9721 214.629 61.5526 217.504 61.9721C220.378 62.3916 224.298 62.4964 224.611 64.2268C224.925 65.9571 226.545 68.1069 225.97 69.1032C225.395 70.0994 222.103 74.1893 221.789 75.9197C221.476 77.65 220.011 78.0345 220.064 76.9509C220.117 75.8673 221.58 72.092 220.326 71.9347C219.071 71.7774 216.929 68.5788 217.504 66.5339Z" fill="#2F2E41"/>
<path d="M23.6211 1.81982C24.6578 1.87858 25.6578 2.22592 26.5088 2.82291C27.3598 3.41989 28.0282 4.24292 28.4392 5.1997C29.6439 8.12151 28.0927 11.5536 25.764 13.6842C23.4353 15.8148 20.444 17.0327 17.7261 18.6335C14.0756 20.7836 10.7953 23.7682 8.96867 27.5996C7.14209 31.4309 6.94779 36.1768 9.09485 39.837C11.0877 43.2343 14.7114 45.2675 18.1674 47.1428" stroke="#3F3D56" stroke-miterlimit="10"/>
<path d="M20.5518 4.14828C18.2012 4.14828 16.2955 3.21966 16.2955 2.07414C16.2955 0.928625 18.2012 0 20.5518 0C22.9025 0 24.8082 0.928625 24.8082 2.07414C24.8082 3.21966 22.9025 4.14828 20.5518 4.14828Z" fill="#F9A826"/>
<path d="M17.1468 17.8133C14.7961 17.8133 12.8905 16.8847 12.8905 15.7392C12.8905 14.5937 14.7961 13.665 17.1468 13.665C19.4975 13.665 21.4031 14.5937 21.4031 15.7392C21.4031 16.8847 19.4975 17.8133 17.1468 17.8133Z" fill="#F9A826"/>
<path d="M24.9297 20.0091C22.5791 20.0091 20.6734 19.0805 20.6734 17.935C20.6734 16.7895 22.5791 15.8608 24.9297 15.8608C27.2804 15.8608 29.1861 16.7895 29.1861 17.935C29.1861 19.0805 27.2804 20.0091 24.9297 20.0091Z" fill="#F9A826"/>
<path d="M12.7689 31.4784C10.4182 31.4784 8.5126 30.5497 8.5126 29.4042C8.5126 28.2587 10.4182 27.3301 12.7689 27.3301C15.1196 27.3301 17.0252 28.2587 17.0252 29.4042C17.0252 30.5497 15.1196 31.4784 12.7689 31.4784Z" fill="#F9A826"/>
<path d="M4.2563 31.4784C1.90561 31.4784 0 30.5497 0 29.4042C0 28.2587 1.90561 27.3301 4.2563 27.3301C6.60699 27.3301 8.5126 28.2587 8.5126 29.4042C8.5126 30.5497 6.60699 31.4784 4.2563 31.4784Z" fill="#F9A826"/>
</g>
<defs>
<clipPath id="clip0">
<rect width="251" height="181" fill="white" transform="matrix(-1 0 0 1 251 0)"/>
</clipPath>
</defs>
</svg>
