<svg width="222" height="208" viewBox="0 0 222 208" fill="none" xmlns="http://www.w3.org/2000/svg">
<g opacity="0.7" clip-path="url(#clip0)">
<path opacity="0.1" d="M363.891 88.8099C363.824 89.1992 363.758 89.5884 363.685 89.9777C361.318 103.234 357.455 116.014 351.71 127.748C351.521 128.137 351.329 128.526 351.134 128.916C347.447 136.314 342.919 143.267 337.64 149.637C334.778 153.075 331.658 156.339 327.948 158.695C322.747 161.997 316.667 163.339 310.691 164.437C304.482 165.58 298.193 166.522 291.917 167.565C289.693 167.926 287.482 168.305 285.285 168.701C279.223 169.793 273.205 171.054 267.331 172.726C260.068 174.812 253.021 177.498 246.389 181.304C245.859 181.605 245.334 181.915 244.815 182.232C244.295 182.545 243.768 182.865 243.262 183.191C242.756 183.518 242.246 183.841 241.744 184.172L240.969 184.693C240.714 184.86 240.463 185.041 240.212 185.207C239.465 185.715 238.728 186.25 237.992 186.764L237.964 186.785C237.479 187.133 236.997 187.48 236.515 187.828C233.796 189.833 231.137 191.933 228.488 194.039L226.816 195.37C225.952 196.051 225.089 196.732 224.226 197.41C223.72 197.81 223.207 198.206 222.697 198.603C222.327 198.891 221.961 199.18 221.584 199.465C219.695 200.914 217.783 202.332 215.832 203.687C215.368 204.011 214.896 204.334 214.436 204.65C210.53 207.31 206.376 209.589 202.031 211.456L201.975 211.48C199.835 212.388 197.633 213.144 195.385 213.743C194.098 214.09 192.81 214.365 191.504 214.58C188.027 215.179 184.477 215.24 180.981 214.761C174.109 213.791 167.669 210.59 160.814 209.52C146.671 207.333 132.937 214.386 119.628 219.922C116.371 221.28 113.077 222.555 109.747 223.746C107.541 224.538 105.325 225.292 103.098 226.008C89.5318 230.378 75.5527 233.356 61.3785 234.895C55.5915 235.525 49.5568 235.823 43.6651 235.372C41.4403 235.209 39.2263 234.922 37.0335 234.513C29.5747 233.123 22.6116 230.172 17.0026 224.781C12.3431 220.371 9.0552 214.605 6.54916 208.588C5.54162 206.171 4.65392 203.699 3.88605 201.171C2.6791 197.209 1.77257 193.163 1.17408 189.065C1.03796 188.141 0.915794 187.213 0.825046 186.285C0.64355 184.693 0.50859 183.094 0.420169 181.488C-0.0685166 172.954 0.768542 164.396 2.90178 156.116C5.27868 146.944 9.24368 138.161 10.9888 128.902C11.0621 128.512 11.1284 128.123 11.1948 127.734C11.4274 126.344 11.6043 124.928 11.7253 123.487C12.6048 112.163 9.20179 101.079 6.51425 89.9777C6.42002 89.5884 6.32578 89.1992 6.23503 88.8099C5.94417 87.5795 5.66843 86.348 5.40782 85.1153C2.91923 73.3745 2.23862 60.81 4.44799 49.0935C4.51779 48.7042 4.59807 48.3115 4.67835 47.9257C6.16871 40.6685 8.80041 33.7658 12.8317 27.6174C16.9677 21.3056 22.3987 16.0538 28.1891 11.4382C31.0162 9.19057 33.94 7.0878 36.9602 5.12984C39.1312 3.72567 41.3417 2.39681 43.5918 1.14326C61.7729 -8.93616 82.5158 -13.8612 103.025 -12.7594C104.112 -12.7038 105.196 -12.6296 106.278 -12.537C107.413 -12.4396 108.545 -12.3238 109.674 -12.1894C122.878 -10.6705 135.726 -6.90638 148.497 -2.78772C152.776 -1.39745 157.044 -0.00718699 161.313 1.38308C163.212 1.99943 165.109 2.60767 167.006 3.2078C176.307 6.13083 185.763 8.76886 195.305 10.7569C197.518 11.2204 199.729 11.6432 201.937 12.0256C209.614 13.395 217.383 14.192 225.179 14.4099C228.204 14.484 231.229 14.4527 234.254 14.316C235.782 14.2465 237.312 14.1446 238.843 14.0102C254.658 12.6616 269.907 8.13977 285.219 3.89251C287.432 3.27731 289.648 2.66559 291.851 2.07473C294.762 1.29618 297.676 0.541968 300.601 -0.153164C318.813 -4.50817 335.043 -2.00569 351.975 6.97542C355.814 9.01563 359.653 11.4764 362.027 15.2857C364.4 19.0951 364.976 23.8115 365.416 28.3507C366.037 34.8085 366.463 41.3567 366.599 47.9326C366.599 48.3219 366.599 48.7112 366.624 49.1004C366.931 62.4157 366.118 75.8318 363.891 88.8099Z" fill="#F9A826"/>
<path opacity="0.1" d="M243.095 127.748H241.904V128.265V128.915H243.252L243.095 127.748ZM229.604 127.748C229.603 127.757 229.603 127.766 229.604 127.775L229.5 128.742V128.829V128.915H239.831V128.846L240.568 127.748H229.604ZM201.979 127.748V89.9776H213.846C213.72 89.8733 213.591 89.769 213.458 89.6717L213.284 89.5396C213.21 89.4805 213.137 89.4249 213.06 89.3728C212.984 89.3207 212.802 89.1886 212.666 89.0982C212.53 89.0079 212.446 88.9488 212.317 88.8758L212.237 88.8236H212.219H201.979V86.7556L201.703 86.8877L201.41 87.0511H201.389L201.326 87.0893L201.144 87.2075C201.082 87.2457 201.019 87.2839 200.96 87.3256C200.778 87.4473 200.61 87.5794 200.419 87.7149L200.244 87.8539C200.125 87.9443 200.014 88.0381 199.895 88.132C199.431 88.5108 198.974 88.9071 198.499 89.272C198.38 89.3658 198.261 89.4562 198.15 89.5431C197.896 89.7282 197.633 89.8999 197.361 90.0575C197.248 90.1273 197.132 90.1912 197.012 90.2487L196.817 90.339L196.639 90.4155C196.219 90.5916 195.785 90.7289 195.34 90.8256V127.748H177.54C177.54 127.789 177.564 127.828 177.574 127.869C177.672 128.217 177.77 128.564 177.864 128.912H195.344V169.4H195.616L195.926 169.421L196.492 169.462L197.406 169.553L197.818 169.602L198.272 169.657H198.338C198.6 169.692 198.865 169.734 199.134 169.775L199.305 169.803L199.689 169.866L200.24 169.963L201.563 169.893L201.745 169.932C201.818 169.932 201.891 169.96 201.968 169.977V128.915H229.475V128.829V128.742L229.58 127.775C229.578 127.766 229.578 127.757 229.58 127.748H201.979ZM243.095 127.748H241.904V128.265V128.915H243.252L243.095 127.748ZM228.861 127.748L228.742 128.915H240.236L241.018 127.748H228.861ZM201.986 127.748V89.9776H213.853C213.727 89.8733 213.598 89.769 213.465 89.6717L213.291 89.5396C213.217 89.4805 213.144 89.4249 213.067 89.3728C212.991 89.3207 212.809 89.1886 212.673 89.0982C212.537 89.0079 212.453 88.9488 212.324 88.8758L212.244 88.8236H212.219H201.979V86.7556L201.703 86.8877L201.41 87.0511H201.389L201.326 87.0893L201.144 87.2075C201.082 87.2457 201.019 87.2839 200.96 87.3256C200.778 87.4473 200.61 87.5794 200.419 87.7149L200.244 87.8539C200.125 87.9443 200.014 88.0381 199.895 88.132C199.431 88.5108 198.974 88.9071 198.499 89.272C198.38 89.3658 198.261 89.4562 198.15 89.5431C197.896 89.7282 197.633 89.8999 197.361 90.0575C197.248 90.1273 197.132 90.1912 197.012 90.2487L196.817 90.339L196.639 90.4155C196.219 90.5916 195.785 90.7289 195.34 90.8256V127.748H177.54C177.54 127.789 177.564 127.828 177.574 127.869C177.672 128.217 177.773 128.564 177.868 128.912H195.344V169.396L195.616 169.414L195.926 169.435L196.492 169.476L197.406 169.567L197.818 169.615L198.272 169.671H198.338C198.6 169.706 198.865 169.747 199.134 169.789L199.305 169.817L199.689 169.88L200.24 169.977L201.563 169.907L201.745 169.946C201.818 169.946 201.891 169.973 201.968 169.991V128.915H228.742L228.868 127.748H201.986ZM291.917 49.0933H366.69C366.69 48.7041 366.69 48.3148 366.666 47.9255H291.917V2.06764C289.697 2.6585 287.481 3.27022 285.285 3.88541V47.9255H203.961L203.755 47.7031L204.066 47.3555L234.313 14.2985C231.288 14.4375 228.263 14.4688 225.238 14.3923L201.979 39.7994V12.0185C199.759 11.6361 197.548 11.2133 195.347 10.7498V38.5204L161.341 1.37598C157.072 -0.014282 152.804 -1.42888 148.525 -2.79481L194.747 47.7031L194.541 47.9255H109.702V-12.2034C108.571 -12.3309 107.439 -12.4467 106.306 -12.551C105.224 -12.646 104.139 -12.7201 103.053 -12.7734V47.9255H43.6197V1.14311C41.365 2.39435 39.1545 3.72321 36.9882 5.1297V47.9255H4.66438C4.58411 48.3113 4.50383 48.7041 4.43402 49.0933H36.9602V88.8097H6.23502C6.32577 89.199 6.42001 89.5883 6.51425 89.9776H36.9742V127.748H11.1843C11.118 128.137 11.0517 128.526 10.9784 128.915H36.9742V234.523C39.1669 234.932 41.3809 235.219 43.6058 235.382V128.915H103.053V226.018C105.282 225.298 107.498 224.544 109.702 223.756V128.915H195.333V213.756C197.581 213.158 199.783 212.402 201.923 211.494L201.979 211.469V128.915H285.264V168.701C287.473 168.305 289.683 167.926 291.896 167.565V128.915H351.116C351.312 128.526 351.504 128.137 351.692 127.748H291.917V89.9776H363.688C363.762 89.5883 363.828 89.199 363.894 88.8097H291.917V49.0933ZM43.6232 49.0933H103.053V88.8097H43.6197L43.6232 49.0933ZM43.6232 127.748V89.9776H103.053V127.748H43.6232ZM109.705 49.0933H195.333V88.8097H109.702L109.705 49.0933ZM109.705 127.748V89.9776H195.333V127.748H109.705ZM285.268 127.748H201.979V89.9776H285.264L285.268 127.748ZM285.268 88.8202H201.979V50.1569L203.148 49.0933H285.264L285.268 88.8202ZM229.608 127.748C229.606 127.757 229.606 127.766 229.608 127.775L229.503 128.742V128.829V128.915H239.835V128.846L240.571 127.748H229.608ZM243.098 127.748H241.908V128.265V128.915H243.255L243.098 127.748ZM201.982 127.748V89.9776H213.849C213.724 89.8733 213.594 89.769 213.462 89.6717L213.287 89.5396C213.214 89.4805 213.141 89.4249 213.064 89.3728C212.987 89.3207 212.806 89.1886 212.669 89.0982C212.533 89.0079 212.45 88.9488 212.32 88.8758L212.24 88.8236H212.223H201.979V86.7556L201.703 86.8877L201.41 87.0511H201.389L201.326 87.0893L201.144 87.2075C201.082 87.2457 201.019 87.2839 200.96 87.3256C200.778 87.4473 200.61 87.5794 200.419 87.7149L200.244 87.8539C200.125 87.9443 200.014 88.0381 199.895 88.132C199.431 88.5108 198.974 88.9071 198.499 89.272C198.38 89.3658 198.261 89.4562 198.15 89.5431C197.896 89.7282 197.633 89.8999 197.361 90.0575C197.248 90.1273 197.132 90.1912 197.012 90.2487L196.817 90.339L196.639 90.4155C196.219 90.5916 195.785 90.7289 195.34 90.8256V127.748H177.54C177.54 127.789 177.564 127.828 177.574 127.869C177.672 128.217 177.77 128.564 177.864 128.912H195.344V169.4H195.616L195.926 169.421L196.492 169.462L197.406 169.553L197.818 169.602L198.272 169.657H198.338C198.6 169.692 198.865 169.734 199.134 169.775L199.305 169.803L199.689 169.866L200.24 169.963L201.563 169.893L201.745 169.932C201.818 169.932 201.891 169.96 201.968 169.977V128.915H229.475V128.829V128.742L229.58 127.775C229.578 127.766 229.578 127.757 229.58 127.748H201.982Z" fill="#F9A826"/>
<path opacity="0.1" d="M72.195 21.7468H72.7255C72.544 21.6421 72.3913 21.4944 72.281 21.3167C72.1708 21.139 72.1064 20.9369 72.0937 20.7284V20.7284C72.0937 19.922 73.085 19.2651 74.2961 19.2651H89.7059C90.917 19.2651 91.9082 19.922 91.9082 20.7284C91.9082 21.5313 90.917 22.1916 89.7059 22.1916H89.1928C89.3735 22.2969 89.5253 22.4449 89.6349 22.6225C89.7445 22.8002 89.8084 23.0019 89.821 23.21C89.821 23.9051 89.102 24.4752 88.1387 24.6316H92.5749C93.7825 24.6316 94.7738 25.2885 94.7738 26.0948C94.7738 26.9012 93.7825 27.5546 92.5749 27.5546H77.1477C75.9401 27.5546 74.9488 26.8977 74.9488 26.0948C74.9488 25.3997 75.6678 24.8297 76.6312 24.6733H72.195C70.9873 24.6733 69.9961 24.0164 69.9961 23.21C69.9961 22.4037 70.9803 21.7468 72.195 21.7468Z" fill="#F9A826"/>
<path opacity="0.1" d="M48.5551 95.2711H49.0716C48.8907 95.1653 48.7387 95.0167 48.6291 94.8385C48.5196 94.6602 48.4558 94.4579 48.4434 94.2493V94.2493C48.4434 93.4464 49.4311 92.786 50.6423 92.786H66.052C67.2631 92.786 68.2544 93.4464 68.2544 94.2493C68.2544 95.0556 67.2631 95.7125 66.052 95.7125H65.5389C65.7199 95.8184 65.8719 95.967 65.9814 96.1452C66.091 96.3234 66.1548 96.5257 66.1672 96.7344C66.1672 97.4295 65.4482 97.996 64.4849 98.1524H68.921C70.1322 98.1524 71.1199 98.8093 71.1199 99.6157C71.1199 100.422 70.1322 101.079 68.921 101.079H53.5078C52.3002 101.079 51.3089 100.419 51.3089 99.6157C51.3089 98.9205 52.0314 98.3505 52.9913 98.1941H48.5551C47.3474 98.1941 46.3562 97.5372 46.3562 96.7344C46.3562 95.9315 47.3474 95.2711 48.5551 95.2711Z" fill="#F9A826"/>
<path d="M226.774 195.384C225.911 196.066 225.047 196.746 224.184 197.424C223.678 197.824 223.165 198.22 222.655 198.617C222.285 198.905 221.919 199.194 221.542 199.479C219.654 200.928 217.741 202.346 215.79 203.702C215.326 204.025 214.854 204.348 214.394 204.664C210.488 207.324 206.334 209.603 201.989 211.47L201.933 211.494V195.384H226.774Z" fill="#65617D"/>
<path d="M265.614 132.071L266.005 120.063C265.771 119.882 265.534 119.715 265.307 119.548C265.403 115.968 265.198 112.386 264.693 108.84C263.115 96.8315 252.871 96.5708 249.981 99.049C249.598 99.3781 249.18 99.6648 248.735 99.904C248.997 98.1905 249.321 96.4735 249.555 94.7774C250.819 85.6295 248.857 75.338 241.73 69.4259C238.746 66.9547 235.098 65.4359 231.821 63.3679C225.95 59.6802 221.312 54.2338 215.375 50.6435C209.438 47.0531 201.099 45.708 195.92 50.3237C193.913 52.1102 192.618 54.5883 190.558 56.3123C186.719 59.5238 180.733 59.7358 177.382 63.3227C177.215 63.5034 177.054 63.6876 176.901 63.8823C174.109 67.4483 174.873 72.5054 175.763 76.9299C176.835 82.2546 176.391 86.5227 180.978 88.052C180.995 88.264 181.009 88.476 181.033 88.6846C181.406 91.951 182.492 95.0968 184.214 97.9017C185.936 100.707 188.252 103.103 191.002 104.923L190.258 105.187C188.276 105.882 186.492 106.556 185.351 107.019C181.162 108.718 172.346 110.932 172.346 110.932C172.346 110.932 172.137 113.435 172.175 117.126C169.236 120.306 164.332 125.895 162.891 129.207C160.797 134.038 148.964 147.875 145.813 149.964C142.661 152.053 139.244 154.531 139.244 154.531C139.244 154.531 134.253 157.273 131.89 157.534C130.253 157.715 125.188 156.748 125.188 156.748C125.188 156.748 104.962 132.071 106.274 151.007C107.587 169.942 123.743 170.585 123.743 170.585L140.033 170.324C140.033 170.324 148.835 171.499 152.776 168.239C156.14 165.458 173.578 150.204 179.18 143.284C179.309 143.426 179.438 143.565 179.574 143.701C179.574 143.701 181.805 140.83 182.07 143.701C182.335 146.572 180.621 147.872 181.543 148.914C182.464 149.957 185.222 153.613 185.351 155.049C185.48 156.484 181.676 162.348 188.108 166.797C188.209 166.866 188.318 166.932 188.436 166.998C189.585 169.601 193.235 172.149 193.235 172.149L212.938 171.888L250.114 174.759C250.114 174.759 251.22 173.79 252.717 172.205C254.717 174.033 257.492 175.6 260.619 174.638C260.619 174.638 265.087 169.289 265.22 165.764C265.22 165.764 262.33 158.323 261.031 156.105C259.733 153.888 261.953 149.057 261.953 149.057C261.953 149.057 263.527 144.358 264.448 144.358C265.37 144.358 264.71 141.23 264.71 141.23C264.362 140.718 264.144 140.13 264.075 139.516C264.006 138.902 264.089 138.28 264.316 137.705C265.087 135.728 265.614 132.071 265.614 132.071Z" fill="url(#paint0_linear)"/>
<path d="M243.328 129.367L241.932 130.994L236.292 137.535L228.924 137.98L217.13 138.703C217.13 138.703 201.228 119.622 204.216 115.468C205.301 113.97 205.479 111.993 205.263 110.126C205.235 109.869 205.197 109.612 205.151 109.358C204.794 107.383 204.169 105.466 203.295 103.658L203.685 103.481L203.937 103.366L217.842 97.0472L221.284 95.4832C221.455 96.4277 221.773 97.34 222.226 98.1872C222.292 98.3193 222.366 98.4514 222.442 98.5765C227.186 106.397 242.397 101.451 242.397 101.451L243.328 129.367Z" fill="#EE8E9E"/>
<path d="M222.655 198.617C222.285 198.905 221.919 199.194 221.542 199.479C219.654 200.928 217.741 202.346 215.79 203.701C215.326 204.025 214.854 204.348 214.394 204.664H195.333H109.702H103.053L70.1112 203.489L43.6198 203.267L36.9882 202.919L3.90001 201.182C2.68783 197.217 1.77662 193.166 1.17407 189.065C1.03795 188.141 0.915791 187.213 0.825043 186.285L36.9742 188.28L43.6058 188.652L103.039 191.954L109.688 192.322L195.319 197.084L201.909 197.452H201.965L222.655 198.617Z" fill="#D48A9B"/>
<path d="M267.31 172.726C260.047 174.811 253 177.498 246.369 181.304C245.841 181.606 245.321 181.916 244.794 182.232C244.267 182.548 243.747 182.865 243.241 183.191C242.735 183.518 242.225 183.841 241.723 184.171L240.948 184.693L240.191 185.207C239.444 185.718 238.707 186.25 237.971 186.764L237.943 186.785C237.458 187.133 236.976 187.48 236.494 187.828C233.775 189.833 231.116 191.933 228.467 194.039C227.908 194.484 227.349 194.927 226.788 195.37L224.205 197.41C223.699 197.81 223.186 198.206 222.676 198.602C222.306 198.891 221.94 199.179 221.563 199.464L202.017 198.536H201.961L195.372 198.23L109.702 194.188L103.053 193.872L43.6198 191.06L36.9882 190.744L1.17411 189.065C1.03798 188.141 0.915822 187.213 0.825074 186.285C0.643578 184.693 0.508618 183.094 0.420197 181.488L36.9847 168.628L43.6163 166.289L49.6406 164.169L60.6176 164.739L85.9887 166.035L103.063 166.929L109.712 167.276L113.96 167.499L114.976 167.554L150.723 169.414L151.1 169.438L167.051 170.265H167.233H167.337L168.932 170.345L174.37 170.63L181.169 170.978L183.41 171.096L183.833 171.12L187.002 171.284L187.906 171.329L190.932 171.489L192.136 171.555H192.174H192.426L195.256 171.704L199.64 171.934H199.661L201.022 172.003H201.169L201.982 172.048L203.979 172.153L205.724 172.243H205.741L207.699 172.344H207.731L209.214 172.424L210.352 172.483L214.39 172.695L215.116 172.733H215.368L215.717 172.754L216.9 172.816L217.43 172.844L221.549 173.056H221.926L228.006 173.004H228.048L251.164 172.816H251.607H252.075H253.45L260.892 172.757H262.002L267.31 172.726Z" fill="#EFC6CD"/>
<path d="M111.297 173.202L113.447 184.592L171.903 183.716C171.903 183.716 176.3 184.981 176.203 181.478C176.203 181.478 185.1 173.105 230.163 182.84L212.861 169.31L165.568 171.84L110.728 170.38L111.297 173.202Z" fill="#F9A826"/>
<path d="M112.372 170.477L114.424 182.84C114.424 182.84 164.685 181.381 172.587 182.743L166.615 171.451C166.615 171.451 136.225 168.628 112.372 170.477Z" fill="white"/>
<path opacity="0.1" d="M112.372 170.477L114.424 182.84C114.424 182.84 164.685 181.381 172.587 182.743L166.615 171.451C166.615 171.451 136.225 168.628 112.372 170.477Z" fill="black"/>
<path d="M113.122 170.432L115.147 181.93C115.147 181.93 164.768 180.574 172.587 181.839L166.699 171.339C166.699 171.339 136.675 168.712 113.122 170.432Z" fill="white"/>
<path opacity="0.1" d="M114.033 170.787L116.005 181.54C116.005 181.54 164.538 180.272 172.199 181.457L166.44 171.631C166.44 171.631 137.073 169.164 114.033 170.787Z" fill="black"/>
<path d="M114.424 170.394L116.407 181.169C116.407 181.169 164.94 179.9 172.601 181.085L166.828 171.249C166.828 171.249 137.464 168.785 114.424 170.394Z" fill="white"/>
<path d="M80.0866 141.153C80.0866 141.153 82.6275 144.459 78.9173 149.453C75.2071 154.448 72.1426 158.66 73.3817 161.774C73.3817 161.774 78.9662 152.501 83.5385 152.39C88.1108 152.279 85.1021 146.728 80.0866 141.153Z" fill="#F9A826"/>
<path opacity="0.1" d="M80.0866 141.153C80.3098 141.474 80.485 141.825 80.6066 142.196C85.0533 147.41 87.4232 152.275 83.1476 152.38C79.1651 152.491 74.3904 159.581 73.2455 161.375C73.2851 161.509 73.3305 161.645 73.3817 161.781C73.3817 161.781 78.9662 152.508 83.5385 152.397C88.1108 152.286 85.1021 146.728 80.0866 141.153Z" fill="black"/>
<path d="M84.8089 145.369C84.8089 146.53 84.6763 147.475 84.5157 147.475C84.3552 147.475 84.2226 146.53 84.2226 145.369C84.2226 144.208 84.3866 144.751 84.5472 144.751C84.7077 144.751 84.8089 144.205 84.8089 145.369Z" fill="#FFD037"/>
<path d="M86.4284 146.756C85.4023 147.316 84.5088 147.653 84.432 147.51C84.3552 147.368 85.13 146.815 86.1492 146.245C87.1684 145.675 86.7705 146.092 86.8473 146.245C86.924 146.398 87.4546 146.2 86.4284 146.756Z" fill="#FFD037"/>
<path d="M66.6733 141.153C66.6733 141.153 64.1323 144.459 67.846 149.453C71.5597 154.448 74.6172 158.66 73.3817 161.774C73.3817 161.774 67.7797 152.501 63.2214 152.39C58.663 152.279 61.6577 146.728 66.6733 141.153Z" fill="#F9A826"/>
<path opacity="0.1" d="M66.6733 141.153C66.4518 141.475 66.2768 141.826 66.1532 142.196C61.7066 147.41 59.3366 152.275 63.6123 152.38C67.5947 152.491 72.373 159.581 73.5178 161.375C73.4806 161.509 73.4352 161.645 73.3817 161.781C73.3817 161.781 67.7797 152.508 63.2214 152.397C58.663 152.286 61.6577 146.728 66.6733 141.153Z" fill="black"/>
<path d="M61.9509 145.369C61.9509 146.53 62.0835 147.475 62.2441 147.475C62.4046 147.475 62.5372 146.53 62.5372 145.369C62.5372 144.208 62.3732 144.751 62.2126 144.751C62.0521 144.751 61.9509 144.205 61.9509 145.369Z" fill="#FFD037"/>
<path d="M60.3314 146.756C61.3576 147.316 62.2546 147.653 62.3314 147.51C62.4081 147.368 61.6333 146.815 60.6141 146.245C59.5949 145.675 59.9928 146.092 59.916 146.245C59.8393 146.398 59.3052 146.2 60.3314 146.756Z" fill="#FFD037"/>
<path d="M87.0358 157.315L86.9101 158.358L86.7321 159.814L86.6588 160.422L86.4808 161.882L86.404 162.49L86.2225 163.95L84.1912 180.536C84.0097 182.017 81.5804 183.171 78.6486 183.171H68.1008C65.169 183.171 62.7432 182.017 62.5617 180.536L60.5269 163.95L60.3488 162.49L60.2756 161.882L60.0941 160.422L60.0208 159.814L59.8428 158.358L59.7136 157.315C59.6124 156.478 60.9248 155.772 62.5861 155.772H84.1772C85.8351 155.772 87.151 156.478 87.0358 157.315Z" fill="#65617D"/>
<path d="M86.9206 158.347L86.7425 159.807H60.0207L59.8427 158.347H86.9206Z" fill="#9D9CB5"/>
<path d="M86.6693 160.416L86.4913 161.875H60.2756L60.0941 160.416H86.6693Z" fill="#9D9CB5"/>
<path d="M86.4145 162.483L86.2365 163.94H60.5268L60.3488 162.483H86.4145Z" fill="#9D9CB5"/>
<path d="M119.248 155.974C119.248 155.974 112.47 149.485 112.731 157.92C112.993 166.356 119.248 155.974 119.248 155.974Z" fill="#EE8E9E"/>
<path d="M180.115 141.177C179.965 141.831 179.236 142.915 178.098 144.274C172.22 151.323 155.498 165.973 152.221 168.691C148.312 171.937 139.579 170.776 139.579 170.776L123.419 171.037C123.419 171.037 107.388 170.387 106.082 151.573C104.777 132.759 124.85 157.284 124.85 157.284C124.85 157.284 129.876 158.243 131.499 158.062C133.844 157.805 138.797 155.08 138.797 155.08C138.797 155.08 142.186 152.612 145.314 150.537C148.441 148.462 160.172 134.702 162.259 129.899C163.582 126.851 167.843 121.867 170.786 118.634C172.475 116.775 173.728 115.506 173.728 115.506C173.728 115.506 181.026 137.153 180.115 141.177Z" fill="#EE8E9E"/>
<path opacity="0.1" d="M180.115 141.177C179.965 141.831 179.236 142.915 178.098 144.274C172.164 138.258 170.925 126.253 170.786 118.62C172.475 116.761 173.728 115.492 173.728 115.492C173.728 115.492 181.026 137.153 180.115 141.177Z" fill="black"/>
<path opacity="0.1" d="M241.929 130.994L236.292 137.535L228.924 137.98L217.13 138.703C217.13 138.703 201.228 119.622 204.216 115.468C205.301 113.97 205.479 111.993 205.263 110.126C205.235 109.869 205.197 109.612 205.151 109.358C204.794 107.383 204.169 105.466 203.295 103.658L203.685 103.481L203.937 103.366C204.557 105.088 204.986 106.872 205.214 108.687C205.253 108.934 205.288 109.191 205.322 109.455C205.445 110.394 205.556 111.436 205.671 112.583C206.579 123.087 213.214 127.039 216.209 128.297C217.172 128.701 218.113 129.155 219.029 129.656C221.91 131.238 225.233 131.836 228.488 131.359C235.88 130.393 241.908 125.044 241.908 125.044L241.939 130.309L241.929 130.994Z" fill="black"/>
<path d="M242.156 171.809C242.156 171.809 193.672 171.677 187.281 167.266C180.89 162.855 184.677 157.013 184.545 155.584C184.412 154.156 181.679 150.524 180.768 149.481C179.857 148.438 181.55 147.145 181.288 144.292C181.026 141.438 178.814 144.292 178.814 144.292C169.686 135.074 171.641 111.714 171.641 111.714C171.641 111.714 180.367 109.511 184.555 107.818C185.689 107.359 187.456 106.706 189.442 106L190.178 105.736C195.298 103.912 201.385 101.851 201.385 101.851C201.385 101.851 202.555 101.027 203.731 103.491C204.268 104.624 204.809 106.449 205.242 109.365C205.281 109.612 205.315 109.869 205.35 110.133C205.473 111.071 205.584 112.114 205.699 113.261C206.607 123.765 213.242 127.716 216.237 128.975C217.2 129.379 218.141 129.833 219.057 130.334C221.938 131.916 225.261 132.514 228.516 132.037C235.908 131.07 241.936 125.721 241.936 125.721L241.967 130.987L242.058 146.808L242.156 171.809Z" fill="#DFE5EE"/>
<path d="M240.068 151.302L239.287 156.234C239.287 156.234 219.996 161.034 212.439 162.463C204.883 163.891 188.586 162.073 187.414 165.188C186.241 168.302 192.366 172.587 192.366 172.587L211.912 172.327L248.798 175.184C248.798 175.184 262.874 162.852 258.312 154.285C253.75 145.717 240.068 151.302 240.068 151.302Z" fill="#EE8E9E"/>
<path opacity="0.1" d="M200.317 112.364C200.317 112.364 191.452 119.632 193.148 123.139C194.845 126.646 200.317 112.364 200.317 112.364Z" fill="black"/>
<path opacity="0.1" d="M189.368 125.471C189.368 125.471 180.374 140.917 180.897 142.085C181.421 143.253 183.895 147.406 183.763 144.292C183.63 141.178 189.368 125.471 189.368 125.471Z" fill="black"/>
<path opacity="0.1" d="M193.019 128.199C193.019 128.199 190.925 137.802 188.848 141.827C186.771 145.852 193.019 128.199 193.019 128.199Z" fill="black"/>
<path opacity="0.1" d="M222.46 98.587C220.736 101.734 218.281 104.424 215.3 106.433C212.318 108.442 208.897 109.711 205.322 110.133H205.281C199.657 110.791 193.992 109.314 189.414 105.997C194.649 104.113 201.357 101.847 201.357 101.847C201.357 101.847 202.527 101.023 203.703 103.488L221.301 95.4937C221.499 96.5854 221.891 97.633 222.46 98.587V98.587Z" fill="black"/>
<path d="M225.21 87.0546C225.217 90.9634 224.194 94.8055 222.244 98.1976C221.312 99.8152 220.183 101.312 218.882 102.653C215.254 106.415 210.419 108.796 205.214 109.382H205.169C204.337 109.477 203.5 109.525 202.663 109.525C197.123 109.525 191.777 107.494 187.644 103.819C183.512 100.145 180.883 95.0839 180.259 89.6023C180.161 88.7612 180.114 87.9151 180.115 87.0685C180.115 81.1137 182.491 75.4027 186.719 71.192C190.948 66.9813 196.683 64.6157 202.663 64.6157C208.643 64.6157 214.378 66.9813 218.606 71.192C222.835 75.4027 225.21 81.1137 225.21 87.0685V87.0546Z" fill="#EE8E9E"/>
<path opacity="0.1" d="M241.925 130.997L242.016 146.819C238.442 146.979 235.074 146.516 232.411 144.212C230.557 142.606 229.479 140.389 228.921 137.991C228.505 136.058 228.352 134.079 228.467 132.106C228.465 132.087 228.465 132.067 228.467 132.047C228.687 127.678 229.695 123.309 229.165 118.968C228.634 114.627 225.992 110.046 221.678 109.132C220.826 108.948 219.87 108.882 219.263 108.26C218.593 107.565 218.624 106.484 218.697 105.521L218.823 103.898C218.854 103.481 218.868 103.067 218.868 102.653C218.866 98.9633 217.577 95.3885 215.221 92.5397C212.866 89.6909 209.591 87.7448 205.954 87.0338L205.815 87.0095C204.6 86.7662 203.337 86.5264 202.122 86.8044C199.811 87.3362 198.317 89.5676 196.188 90.6277C192.105 92.6575 185.295 90.4365 181.019 89.7379C180.74 89.6927 180.475 89.6406 180.22 89.5815C180.123 88.7404 180.075 87.8944 180.077 87.0477C180.079 83.6087 180.873 80.2161 182.4 77.1314C183.927 74.0468 186.145 71.3526 188.883 69.2568C191.621 67.1609 194.806 65.7194 198.192 65.0433C201.578 64.3673 205.075 64.4748 208.413 65.3577C211.751 66.2405 214.84 67.8751 217.443 70.1352C220.046 72.3953 222.093 75.2207 223.425 78.3933C224.758 81.5659 225.341 85.0009 225.13 88.4334C224.918 91.866 223.917 95.2042 222.205 98.1907C222.271 98.3228 222.345 98.4549 222.422 98.58C227.165 106.4 242.376 101.454 242.376 101.454L243.29 129.36L241.925 130.997Z" fill="black"/>
<path d="M197.009 90.2419C199.124 89.1783 200.617 86.947 202.942 86.4187C204.153 86.1406 205.417 86.3804 206.638 86.6203L206.778 86.6481C210.622 87.4056 214.054 89.541 216.423 92.6497C218.793 95.7584 219.935 99.6245 219.633 103.515L219.507 105.139C219.43 106.098 219.399 107.186 220.076 107.874C220.68 108.496 221.636 108.569 222.488 108.743C226.802 109.66 229.444 114.217 229.975 118.582C230.505 122.948 229.479 127.331 229.276 131.717C229.074 136.103 229.884 140.945 233.214 143.826C238.449 148.345 246.407 145.773 253.335 145.359C250.271 145.359 247.974 142.21 247.807 139.165C247.639 136.121 249 133.222 250.302 130.476C251.604 127.73 252.909 124.776 252.62 121.738C252.222 117.568 248.92 114.227 247.656 110.213C246.184 105.542 247.604 100.526 248.271 95.6709C249.524 86.5785 247.573 76.3427 240.505 70.4654C237.545 68.0081 233.926 66.4962 230.673 64.4386C224.844 60.7579 220.247 55.3602 214.355 51.7802C208.464 48.2003 200.192 46.8726 195.05 51.4605C193.061 53.2365 191.777 55.7008 189.731 57.4143C185.735 60.7683 179.382 60.8309 176.178 64.946C173.421 68.4877 174.168 73.517 175.051 77.9137C176.227 83.7772 175.564 88.3407 181.857 89.3834C186.115 90.0542 192.921 92.2752 197.009 90.2419Z" fill="#603556"/>
<path opacity="0.1" d="M248.861 142.558C243.817 143.173 238.819 143.489 235.147 140.319C231.817 137.438 230.997 132.6 231.21 128.21C231.423 123.82 232.442 119.434 231.908 115.072C231.374 110.71 228.736 106.153 224.421 105.236C223.57 105.055 222.617 104.989 222.01 104.367C221.336 103.672 221.364 102.587 221.441 101.628L221.566 100.005C221.868 96.1144 220.726 92.2488 218.357 89.1407C215.988 86.0325 212.556 83.8978 208.712 83.1411L208.572 83.1133C207.35 82.8734 206.087 82.6336 204.876 82.9117C202.565 83.4434 201.071 85.6922 198.942 86.7349C194.855 88.7681 188.052 86.5472 183.77 85.8486C177.487 84.8233 178.143 80.2528 176.964 74.3789C176.304 71.0979 175.721 67.4623 176.615 64.3551C176.447 64.5324 176.287 64.7027 176.133 64.9147C173.376 68.4564 174.123 73.4857 175.006 77.8824C176.182 83.7458 175.519 88.3094 181.812 89.3521C186.091 90.0472 192.897 92.2716 196.984 90.2384C199.099 89.1748 200.593 86.9434 202.918 86.4151C204.129 86.1371 205.392 86.3769 206.614 86.6167L206.754 86.6445C210.598 87.402 214.03 89.5374 216.399 92.6462C218.768 95.7549 219.91 99.6209 219.608 103.512L219.483 105.135C219.406 106.094 219.374 107.182 220.052 107.87C220.655 108.493 221.612 108.566 222.463 108.739C226.777 109.657 229.42 114.213 229.95 118.579C230.481 122.944 229.458 127.327 229.252 131.713C229.046 136.1 229.859 140.941 233.189 143.823C238.425 148.341 246.383 145.769 253.311 145.355C251.43 145.366 249.848 144.177 248.861 142.558Z" fill="black"/>
<path d="M107.21 154.152L128.728 146.158C129.236 145.969 129.8 145.989 130.294 146.213C130.788 146.437 131.172 146.847 131.363 147.354V147.354C131.553 147.86 131.533 148.421 131.308 148.913C131.083 149.405 130.671 149.788 130.162 149.978L108.644 157.972L104.03 157.513L107.21 154.152Z" fill="#5C5C8E"/>
<path opacity="0.1" d="M130.714 146.7C130.903 147.207 130.883 147.769 130.657 148.261C130.431 148.753 130.018 149.136 129.509 149.325L107.978 157.346L104.515 156.999L104.016 157.527L108.63 157.986L130.148 149.992C130.657 149.802 131.069 149.419 131.294 148.927C131.519 148.435 131.539 147.874 131.349 147.368V147.368C131.19 146.945 130.896 146.587 130.511 146.349C130.588 146.46 130.656 146.578 130.714 146.7V146.7Z" fill="white"/>
<path d="M107.213 154.152L108.644 157.972L104.861 157.593L104.034 157.51L105.164 156.314L107.213 154.152Z" fill="#EFC8C4"/>
<path d="M105.161 156.304C105.249 156.37 105.325 156.451 105.384 156.544C105.42 156.599 105.438 156.664 105.438 156.729C105.438 156.795 105.42 156.86 105.384 156.915C105.325 156.977 105.255 157.027 105.178 157.065C105.092 157.122 105.02 157.198 104.966 157.287C104.913 157.376 104.881 157.476 104.871 157.579L104.041 157.499L105.161 156.304Z" fill="#727A9C"/>
<path d="M174.772 178.548C174.772 178.548 193.41 174.652 224.683 179.591L212.432 170.637L190.143 166.095L174.374 170.266L174.772 178.548Z" fill="white"/>
<path opacity="0.1" d="M174.772 178.548C174.772 178.548 193.41 174.652 224.683 179.591L212.432 170.637L190.143 166.095L174.374 170.266L174.772 178.548Z" fill="black"/>
<path d="M172.587 182.76C172.587 182.76 181.972 157.478 230.177 182.84L212.876 171.753C212.876 171.753 171.428 160.349 166.639 173.491L172.587 182.76Z" fill="white"/>
<path opacity="0.1" d="M172.587 182.743C172.587 182.743 181.972 155.713 230.177 183.23L212.875 171.204C212.875 171.204 171.414 157.565 166.615 171.84L172.587 182.743Z" fill="black"/>
<path d="M172.587 182.753C172.587 182.753 181.972 155.323 230.177 182.84L212.876 170.814C212.876 170.814 171.428 157.565 166.639 171.857L172.587 182.753Z" fill="white"/>
<path opacity="0.1" d="M172.587 182.761C172.587 182.761 181.972 152.275 230.177 183.23L212.862 169.699C212.862 169.699 171.414 155.796 166.625 171.84L172.587 182.761Z" fill="black"/>
<path d="M172.587 182.743C172.587 182.743 181.972 151.886 230.177 182.841L212.862 169.31C212.862 169.31 171.414 155.407 166.625 171.451L172.587 182.743Z" fill="white"/>
<path opacity="0.1" d="M222.205 -16.6835C222.205 -16.6835 198.981 -10.0797 210.272 -0.250539C210.272 -0.250539 211.273 1.83486 214.488 1.83486C214.488 1.83486 213.888 1.0285 216.373 0.538433C217.228 0.367076 218.067 0.120498 218.879 -0.198406C219.836 -0.53251 220.651 -1.18088 221.189 -2.03703C221.189 -2.03703 226.076 -5.92977 222.868 -13.7778C222.868 -13.7778 223.451 -15.9188 223.06 -16.2872L220.156 -13.9168C220.156 -13.9168 222.949 -12.4883 223.182 -10.6011C223.182 -10.6011 220.366 -13.8995 219.692 -13.5762C219.556 -13.5102 218.24 -12.2729 218.24 -12.2729C218.24 -12.2729 223.085 -9.77733 223.305 -6.8543C223.305 -6.8543 220.722 -11.0633 217.72 -11.8036L215.905 -9.85032C215.905 -9.85032 221.21 -7.37217 221.647 -4.04944C221.647 -4.04944 218.722 -8.39054 215.553 -9.40196L214.156 -7.31656C214.156 -7.31656 219.266 -4.83494 219.601 -2.06831C219.601 -2.06831 215.472 -6.8821 213.888 -6.82302C213.888 -6.82302 212.795 -4.84189 212.893 -4.2128C212.893 -4.2128 216.502 -2.37765 216.485 -0.764941C216.485 -0.764941 213.225 -3.80267 212.687 -3.64279C212.687 -3.64279 212.317 -0.782318 213.287 0.767828C213.287 0.767828 211.605 -1.46007 212.01 -3.67754C212.01 -3.67754 210.164 -2.75649 209.699 -1.46007C209.699 -1.46007 208.799 -3.09016 212.115 -4.3692C212.115 -4.3692 212.537 -6.58667 212.924 -6.84387C212.924 -6.84387 209.364 -5.89849 207.804 -4.58469C207.804 -4.58469 208.46 -6.62838 213.263 -7.40693L214.582 -9.53403C214.582 -9.53403 209.766 -8.44963 208.237 -7.35479C208.237 -7.35479 209.399 -9.35678 214.984 -10.0519L216.729 -11.9809C216.729 -11.9809 212.457 -11.2614 210.342 -10.2952C210.342 -10.2952 212.034 -11.9809 217.259 -12.5196L218.655 -13.7083C218.655 -13.7083 215.553 -13.1452 214.687 -12.9298C213.821 -12.7143 213.64 -12.8533 213.64 -12.8533C215.384 -13.6943 217.287 -14.1586 219.224 -14.2158C219.224 -14.2158 222.408 -16.5375 222.205 -16.6835Z" fill="#F9A826"/>
</g>
<defs>
<linearGradient id="paint0_linear" x1="186.108" y1="174.923" x2="186.108" y2="47.3624" gradientUnits="userSpaceOnUse">
<stop stop-color="#808080" stop-opacity="0.25"/>
<stop offset="0.54" stop-color="#808080" stop-opacity="0.12"/>
<stop offset="1" stop-color="#808080" stop-opacity="0.1"/>
</linearGradient>
<clipPath id="clip0">
<rect width="369.669" height="274.372" fill="white" transform="translate(0.280548 -33.3667)"/>
</clipPath>
</defs>
</svg>
